<svg width="133" height="31" viewBox="0 0 133 31" fill="none" xmlns="http://www.w3.org/2000/svg">
<path fill-rule="evenodd" clip-rule="evenodd" d="M7.07407 14.4804C7.50617 14.4804 7.8179 14.5395 8.00926 14.6579C8.20062 14.7762 8.2963 14.9475 8.2963 15.1717C8.2963 15.2713 8.25617 15.3679 8.17593 15.4613C8.09568 15.5547 7.98765 15.6575 7.85185 15.7696C7.64197 15.9066 7.39815 16.0934 7.12037 16.3301C6.84259 16.5668 6.53704 16.8408 6.2037 17.1522C6.08025 17.227 5.94753 17.3173 5.80556 17.4232C5.66358 17.529 5.50617 17.6567 5.33333 17.8062C5.14815 18.0304 4.87037 18.3574 4.5 18.7871C4.12963 19.2169 3.75926 19.6559 3.38889 20.1044C3.22839 20.3161 3.10494 20.5528 3.01852 20.8144C2.9321 21.0759 2.88889 21.35 2.88889 21.6365C2.88889 21.9852 2.96296 22.2935 3.11111 22.5613C3.25926 22.8292 3.41358 23.1063 3.57407 23.3928C3.68519 23.6419 3.85185 23.9596 4.07407 24.3457C4.2963 24.7318 4.56173 25.1927 4.87037 25.7283C4.90741 25.7782 4.94136 25.8373 4.97222 25.9058C5.00309 25.9744 5.01852 26.0398 5.01852 26.102C5.01852 26.3636 4.85803 26.5567 4.53704 26.6812C4.21605 26.8058 3.7284 26.8681 3.07407 26.8681C2.82716 26.8681 2.54321 26.6937 2.22222 26.3449C1.90123 25.9962 1.53087 25.4605 1.11111 24.7381C0.740739 24.053 0.462964 23.4675 0.277778 22.9817C0.0925917 22.496 0 22.0911 0 21.7673C0 21.5181 0.0277775 21.2752 0.0833334 21.0386C0.138889 20.8019 0.234567 20.5902 0.37037 20.4033C0.567902 20.0919 0.941355 19.6373 1.49074 19.0393C2.04013 18.4414 2.76543 17.7065 3.66667 16.8346C3.92593 16.6228 4.18827 16.4049 4.4537 16.1806C4.71914 15.9564 4.98765 15.7384 5.25926 15.5267C5.32099 15.4769 5.38889 15.4146 5.46296 15.3398C5.53704 15.2651 5.6358 15.1841 5.75926 15.097C6.04321 14.9724 6.29321 14.8572 6.50926 14.7513C6.72531 14.6454 6.91358 14.5551 7.07407 14.4804ZM11.3519 15.8256L11.4259 15.6575C11.6605 15.4457 11.9136 15.2963 12.1852 15.2091C12.4568 15.1219 12.7469 15.0783 13.0556 15.0783C13.4753 15.0783 13.787 15.1343 13.9907 15.2464C14.1944 15.3585 14.2963 15.5329 14.2963 15.7696C14.2963 15.8443 14.2593 15.9159 14.1852 15.9845C14.1111 16.053 14.0123 16.1246 13.8889 16.1993C13.7037 16.299 13.4753 16.4111 13.2037 16.5356L11.7037 17.7128C11.642 17.775 11.5586 17.856 11.4537 17.9557C11.3488 18.0553 11.2284 18.155 11.0926 18.2546C11.0185 18.3044 10.9414 18.3605 10.8611 18.4228C10.7809 18.485 10.6975 18.5473 10.6111 18.6096L10.0741 19.4691C9.69136 19.8926 9.31482 20.285 8.94444 20.6462C8.69753 20.8953 8.50617 21.1538 8.37037 21.4216C8.23457 21.6894 8.16667 21.9666 8.16667 22.2531C8.16667 22.4648 8.25617 22.7264 8.43519 23.0378C8.6142 23.3492 8.70988 23.6046 8.72222 23.8039C8.84568 23.9035 8.98765 24.053 9.14815 24.2523C9.30864 24.4516 9.46913 24.6758 9.62963 24.9249C9.82716 25.2114 9.97222 25.4481 10.0648 25.6349C10.1574 25.8218 10.2037 25.9588 10.2037 26.046C10.2037 26.183 10.0586 26.3418 9.76852 26.5224C9.47839 26.703 9.04939 26.8992 8.48148 27.111C8.34568 27.0985 8.16358 26.9989 7.93519 26.812C7.70679 26.6252 7.4321 26.3325 7.11111 25.9339C6.38271 25.0744 5.99074 24.6229 5.93518 24.5793C5.87963 24.5357 5.75926 24.1651 5.57407 23.4675C5.48765 23.1188 5.41358 22.8416 5.35185 22.6361C5.29012 22.4306 5.25926 22.2904 5.25926 22.2157C5.25926 22.0911 5.32716 21.8763 5.46296 21.5711C5.59877 21.2659 5.80864 20.8766 6.09259 20.4033C6.15432 20.3784 6.21605 20.341 6.27778 20.2912C6.33951 20.2414 6.41358 20.1791 6.5 20.1044C6.72222 19.7431 7.03704 19.3632 7.44444 18.9646C7.85185 18.566 8.35802 18.1425 8.96296 17.6941C9.1358 17.5321 9.37037 17.336 9.66667 17.1055C9.96296 16.8751 10.3025 16.5979 10.6852 16.2741C10.7593 16.2367 10.8488 16.1838 10.9537 16.1152C11.0586 16.0467 11.1914 15.9502 11.3519 15.8256ZM33.3704 4.57766C33.3704 4.70223 33.3148 4.81122 33.2037 4.90464C33.0926 4.99806 33.0247 5.10083 33 5.21293C32.9753 5.32504 32.9969 5.45894 33.0648 5.61465C33.1327 5.77035 33.1543 5.88557 33.1296 5.96031C33.0556 6.25926 32.966 6.50215 32.8611 6.689C32.7562 6.87584 32.6852 6.96926 32.6481 6.96926C32.4877 6.96926 32.3395 6.96615 32.2037 6.95992C32.0679 6.95369 31.9506 6.95058 31.8519 6.95058C31.5062 6.93812 31.2716 6.90387 31.1481 6.84781C31.0247 6.79176 30.9198 6.72014 30.8333 6.63294C30.7222 6.52084 30.5586 6.40562 30.3426 6.28728C30.1265 6.16895 29.6852 6.04127 29.0185 5.90425C28.463 5.79215 27.9815 5.73298 27.5741 5.72675C27.1667 5.72052 26.3457 5.76101 25.1111 5.8482C24.8519 5.96031 24.6759 6.05684 24.5833 6.13781C24.4907 6.21877 24.3889 6.32776 24.2778 6.46478C24.1296 6.63917 24.0185 6.85715 23.9444 7.11874C23.8704 7.38032 23.8025 7.61076 23.7407 7.81006C23.6543 8.09655 23.5648 8.39238 23.4722 8.69756C23.3796 9.00274 23.2901 9.31103 23.2037 9.62244C23.1173 9.92139 23.0432 10.2328 22.9815 10.5567C22.9198 10.8805 22.8519 11.2106 22.7778 11.5469C22.716 11.8085 22.6574 12.0857 22.6019 12.3784C22.5463 12.6711 22.4877 12.9732 22.4259 13.2846C22.3765 13.5088 22.3241 13.7672 22.2685 14.06C22.213 14.3527 22.1667 14.6236 22.1296 14.8727C22.2037 14.9475 22.3179 14.988 22.4722 14.9942C22.6265 15.0004 22.7593 15.0098 22.8704 15.0222C23.0309 15.0471 23.1852 15.0596 23.3333 15.0596C23.4815 15.0596 23.6728 15.0845 23.9074 15.1343C24.2778 15.2091 24.6481 15.2713 25.0185 15.3212C25.3889 15.371 25.7346 15.4395 26.0556 15.5267C26.4877 15.6388 26.9043 15.7696 27.3056 15.9191C27.7068 16.0685 28.0741 16.1993 28.4074 16.3114C28.9877 16.4983 29.5062 16.6913 29.963 16.8906C30.4198 17.09 30.8086 17.2892 31.1296 17.4885C31.4259 17.6754 31.6728 17.8747 31.8704 18.0864C32.0679 18.2982 32.2284 18.5162 32.3519 18.7404C32.4877 19.002 32.5802 19.2854 32.6296 19.5905C32.679 19.8957 32.7099 20.2165 32.7222 20.5528C32.7346 20.8766 32.6759 21.2316 32.5463 21.6178C32.4167 22.0039 32.2284 22.4025 31.9815 22.8136C31.7963 23.125 31.5494 23.4426 31.2407 23.7665C30.9321 24.0904 30.5864 24.408 30.2037 24.7194C30.1049 24.7941 30.0216 24.8907 29.9537 25.009C29.8858 25.1273 29.7963 25.2239 29.6852 25.2986C29.5494 25.3983 29.3827 25.4823 29.1852 25.5508C28.9877 25.6194 28.8148 25.6972 28.6667 25.7844C28.5309 25.8591 28.3889 25.9494 28.2407 26.0553C28.0926 26.1612 27.9444 26.2515 27.7963 26.3262C27.6235 26.4134 27.4383 26.4944 27.2407 26.5691C27.0432 26.6439 26.8519 26.7248 26.6667 26.812C26.4568 26.9117 26.2161 26.9833 25.9444 27.0269C25.6728 27.0705 25.4074 27.1421 25.1481 27.2418C24.9383 27.329 24.7037 27.4131 24.4444 27.494C24.1852 27.575 23.9321 27.6528 23.6852 27.7276C23.5 27.7899 23.3086 27.8802 23.1111 27.9985C22.9136 28.1168 22.7037 28.2009 22.4815 28.2507C22.3704 28.2756 22.2469 28.2694 22.1111 28.232C21.9753 28.1947 21.8395 28.1947 21.7037 28.232C21.5926 28.257 21.4815 28.3192 21.3704 28.4189C21.2593 28.5185 21.1543 28.5746 21.0556 28.587C20.8951 28.612 20.7994 28.6369 20.7685 28.6618C20.7377 28.6867 20.6481 28.7116 20.5 28.7365C20.4753 28.9857 20.4568 29.2192 20.4444 29.4372C20.4321 29.6552 20.4198 29.8451 20.4074 30.0071C20.3951 30.1814 20.2222 30.3278 19.8889 30.4461C19.5556 30.5645 19.2593 30.605 19 30.5676C18.8519 30.5427 18.7068 30.4897 18.5648 30.4088C18.4228 30.3278 18.3148 30.2126 18.2407 30.0631C18.1914 29.9635 18.1481 29.842 18.1111 29.6988C18.0741 29.5555 18.0556 29.3905 18.0556 29.2036C17.8457 29.2285 17.642 29.2535 17.4444 29.2784C17.2469 29.3033 17.0679 29.3157 16.9074 29.3157C16.5741 29.3157 16.3025 29.2815 16.0926 29.213C15.8827 29.1445 15.7716 29.023 15.7593 28.8486C15.7469 28.7365 15.784 28.6151 15.8704 28.4843C15.9568 28.3535 16.0432 28.2383 16.1296 28.1386C16.2037 28.0514 16.2994 27.9674 16.4167 27.8864C16.534 27.8054 16.6667 27.7276 16.8148 27.6528C16.9136 27.603 16.9969 27.5656 17.0648 27.5407C17.1327 27.5158 17.2346 27.4722 17.3704 27.4099C17.4568 27.3726 17.5556 27.3321 17.6667 27.2885C17.7778 27.2449 17.8827 27.2044 17.9815 27.167C17.9815 27.0549 17.9938 26.9304 18.0185 26.7934C18.0432 26.6563 18.0556 26.5255 18.0556 26.401C18.0556 26.2889 18.0525 26.1737 18.0463 26.0553C18.0401 25.937 18.037 25.828 18.037 25.7283C18.037 25.6038 18.0648 25.4761 18.1204 25.3453C18.1759 25.2145 18.2037 25.0868 18.2037 24.9623C18.2037 24.8751 18.1914 24.7786 18.1667 24.6727C18.142 24.5668 18.1296 24.4703 18.1296 24.3831C18.1543 23.9097 18.1944 23.4146 18.25 22.8977C18.3056 22.3807 18.3519 21.8918 18.3889 21.4309C18.4506 20.6337 18.5123 19.7712 18.5741 18.8432C18.6358 17.9152 18.7346 17.227 18.8704 16.7785C18.1173 16.7287 17.5586 16.5637 17.1944 16.2834C16.8302 16.0031 16.6852 15.7135 16.7593 15.4146C16.8086 15.2527 16.9198 15.0907 17.0926 14.9288C17.2654 14.7669 17.6111 14.6859 18.1296 14.6859C18.3148 14.6859 18.4722 14.6952 18.6019 14.7139C18.7315 14.7326 18.8889 14.7233 19.0741 14.6859C19.1111 14.4243 19.1636 14.1783 19.2315 13.9479C19.2994 13.7174 19.3519 13.4839 19.3889 13.2472C19.4506 12.886 19.537 12.5372 19.6481 12.2009C19.7593 11.8646 19.8457 11.5345 19.9074 11.2106C19.9691 10.8992 20.0401 10.5753 20.1204 10.239C20.2006 9.9027 20.2716 9.56016 20.3333 9.21138C20.3704 8.98717 20.4198 8.75362 20.4815 8.51072C20.5432 8.26782 20.6049 8.01559 20.6667 7.754C20.679 7.71663 20.713 7.66681 20.7685 7.60453C20.8241 7.54225 20.8889 7.46751 20.963 7.38032C21 7.33049 21.0309 7.2651 21.0556 7.18413C21.0802 7.10317 21.1173 7.044 21.1667 7.00663C21.2284 6.9568 21.2685 6.91009 21.287 6.8665C21.3056 6.8229 21.3519 6.76996 21.4259 6.70768C21.4877 6.65786 21.5309 6.60492 21.5556 6.54886C21.5802 6.49281 21.6173 6.4461 21.6667 6.40873C21.7531 6.34645 21.7438 6.2904 21.6389 6.24057C21.534 6.19075 21.5247 6.13469 21.6111 6.07241C21.4877 6.07241 21.3981 6.07553 21.3426 6.08175C21.287 6.08798 21.1667 6.09732 20.9815 6.10978C20.6728 6.13469 20.4722 6.15961 20.3796 6.18452C20.287 6.20943 20.0556 6.24057 19.6852 6.27794C19.3518 6.31531 19.0185 6.35891 18.6852 6.40873C18.3518 6.45856 18.037 6.50838 17.7407 6.55821C17.3457 6.62049 17.0432 6.76373 16.8333 6.98795C16.6235 7.21216 16.4691 7.34295 16.3704 7.38032C16.2963 7.40523 16.2099 7.31804 16.1111 7.11874C16.0123 6.91944 15.963 6.77619 15.963 6.689C15.963 6.6018 15.9846 6.50215 16.0278 6.39005C16.071 6.27794 16.1296 6.13469 16.2037 5.96031C16.2407 5.86066 16.287 5.75478 16.3426 5.64267C16.3981 5.53057 16.4568 5.43092 16.5185 5.34372C16.6296 5.19425 16.7377 5.05723 16.8426 4.93267C16.9475 4.8081 17.0247 4.7396 17.0741 4.72714C17.6296 4.5403 18.2716 4.33477 19 4.11056C19.7284 3.88634 20.537 3.66213 21.4259 3.43792C22.1914 3.23862 23.0401 3.05801 23.9722 2.89607C24.9043 2.73414 25.9012 2.59712 26.963 2.48502C27.3827 2.43519 27.7809 2.41028 28.1574 2.41028C28.534 2.41028 28.963 2.39782 29.4444 2.37291C29.5926 2.36046 29.8056 2.34177 30.0833 2.31686C30.3611 2.29195 30.5802 2.27949 30.7407 2.27949C30.8765 2.27949 31.0154 2.30129 31.1574 2.34489C31.2994 2.38848 31.4321 2.41028 31.5556 2.41028C31.9506 2.41028 32.2778 2.48502 32.537 2.63449C32.7963 2.78397 32.9938 2.98327 33.1296 3.23239C33.2407 3.43169 33.3086 3.63722 33.3333 3.84898C33.358 4.06073 33.3704 4.30363 33.3704 4.57766ZM29.2222 20.2725C29.2099 19.4255 28.6019 18.7715 27.3981 18.3107C26.1944 17.8498 24.5926 17.3889 22.5926 16.928C22.3457 16.8782 22.2006 16.8595 22.1574 16.872C22.1142 16.8844 21.9815 16.872 21.7593 16.8346C21.6852 17.3453 21.5833 17.8591 21.4537 18.3761C21.3241 18.893 21.2222 19.4006 21.1481 19.8988C21.0988 20.1978 21.0679 20.4998 21.0556 20.805C21.0432 21.1102 21.0247 21.406 21 21.6925C20.9753 21.9666 20.9475 22.2188 20.9167 22.4492C20.8858 22.6797 20.8519 22.9257 20.8148 23.1873C20.7778 23.4489 20.7593 23.698 20.7593 23.9346C20.7593 24.1713 20.7469 24.4204 20.7222 24.682C20.7099 24.8066 20.713 24.9374 20.7315 25.0744C20.75 25.2114 20.7593 25.3422 20.7593 25.4668C20.7593 25.554 20.7531 25.6443 20.7407 25.7377C20.7284 25.8311 20.7222 25.9152 20.7222 25.9899C21.0556 25.8778 21.2685 25.7937 21.3611 25.7377C21.4537 25.6816 21.642 25.5976 21.9259 25.4854C22.1111 25.4107 22.2994 25.3297 22.4907 25.2426C22.6821 25.1554 22.8704 25.0682 23.0556 24.981C23.3272 24.844 23.6019 24.7038 23.8796 24.5606C24.1574 24.4173 24.4198 24.2772 24.6667 24.1402C24.963 23.9782 25.2531 23.8132 25.537 23.645C25.821 23.4769 26.0802 23.3181 26.3148 23.1686C26.7099 22.9195 27.071 22.6672 27.3981 22.4119C27.7253 22.1565 28.0123 21.9167 28.2593 21.6925C28.5679 21.406 28.8056 21.1382 28.9722 20.8891C29.1389 20.64 29.2222 20.4344 29.2222 20.2725ZM33.4259 20.6836C33.3889 20.5466 33.3673 20.4344 33.3611 20.3473C33.3549 20.2601 33.3519 20.1853 33.3519 20.123C33.3519 19.712 33.4012 19.3601 33.5 19.0674C33.5988 18.7747 33.7469 18.5286 33.9444 18.3293C33.9938 18.2795 34.1204 18.2048 34.3241 18.1051C34.5278 18.0055 34.7963 17.8871 35.1296 17.7501C35.3642 17.638 35.5525 17.5041 35.6944 17.3484C35.8364 17.1927 35.9136 17.0028 35.9259 16.7785C35.963 16.6042 36.037 16.4049 36.1481 16.1806C36.2593 15.9564 36.3889 15.7135 36.537 15.452C36.5864 15.3772 36.7346 14.9475 36.9815 14.1627C37.2284 13.378 37.5741 12.2258 38.0185 10.7061C38.142 10.2452 38.2654 9.84665 38.3889 9.51033C38.5123 9.17401 38.6173 8.88752 38.7037 8.65085C39.0988 7.59207 39.4228 6.89764 39.6759 6.56755C39.929 6.23746 40.1173 5.96654 40.2407 5.75478V5.66136L39.6667 4.74582L40.3889 3.90503L41.3148 3.71818C41.5 3.69327 41.6698 3.51889 41.8241 3.19502C41.9784 2.87116 42.2469 2.51616 42.6296 2.13002C42.7161 2.1051 42.8549 2.02725 43.0463 1.89646C43.2377 1.76567 43.4815 1.58194 43.7778 1.34527C44.037 1.13352 44.2593 0.977815 44.4444 0.878164C44.6296 0.778514 44.7716 0.72869 44.8704 0.72869C45.2037 0.72869 45.4444 0.797198 45.5926 0.934217C45.7407 1.07124 45.8148 1.25185 45.8148 1.47606C45.8148 1.7501 45.6728 2.1487 45.3889 2.67186C45.1049 3.19503 44.963 3.59362 44.963 3.86766C44.963 3.99222 44.9907 4.09499 45.0463 4.17595C45.1019 4.25692 45.1667 4.30986 45.2407 4.33477L47.463 5.54925C47.5864 5.59908 47.6975 5.79526 47.7963 6.13781C47.8951 6.48036 47.9753 6.95057 48.037 7.54848C48.1111 8.04673 48.1698 8.46089 48.213 8.79099C48.2562 9.12108 48.2778 9.38577 48.2778 9.58507C48.1914 10.1207 48.1049 10.6625 48.0185 11.2106C48.142 11.9082 48.2778 12.6431 48.4259 13.4154C48.3519 14.1503 48.2716 14.8976 48.1852 15.6575C48.1852 15.7322 48.2006 15.7976 48.2315 15.8537C48.2623 15.9097 48.3086 15.944 48.3704 15.9564C48.5802 15.9689 48.7377 16.0249 48.8426 16.1246C48.9475 16.2242 49 16.3613 49 16.5356C49 16.7599 48.966 16.9374 48.8981 17.0681C48.8302 17.1989 48.7346 17.3017 48.6111 17.3764C48.4506 17.4761 48.3241 17.5633 48.2315 17.638C48.1389 17.7128 48.0741 17.775 48.037 17.8249L48.2778 18.9833L47.9444 21.6365C47.9444 21.8607 47.9259 22.1472 47.8889 22.496C47.8519 22.8447 47.7963 23.2496 47.7222 23.7104C47.5988 24.0468 47.5062 24.327 47.4444 24.5512C47.3827 24.7754 47.3519 24.9249 47.3519 24.9997C47.4136 25.2114 47.4691 25.4356 47.5185 25.6723C47.4444 26.0086 47.3673 26.3449 47.287 26.6812C47.2068 27.0176 47.1296 27.3477 47.0556 27.6715C46.9198 28.1075 46.7407 28.4282 46.5185 28.6338C46.2963 28.8393 46.037 28.9421 45.7407 28.9421C45.5802 28.9421 45.4599 28.8704 45.3796 28.7272C45.2994 28.5839 45.2593 28.3691 45.2593 28.0826C45.2593 27.958 45.2809 27.7774 45.3241 27.5407C45.3673 27.3041 45.3889 27.1234 45.3889 26.9989C45.3889 26.9117 45.3765 26.7934 45.3519 26.6439C45.3272 26.4944 45.3148 26.3636 45.3148 26.2515C45.3148 25.9027 45.3488 25.3453 45.4167 24.5793C45.4846 23.8132 45.5185 23.2371 45.5185 22.851C45.4568 22.6392 45.3951 22.4212 45.3333 22.197C45.3704 21.9603 45.3951 21.7206 45.4074 21.4777C45.4198 21.2348 45.4136 21.0074 45.3889 20.7957L45.6667 20.2912L45.4259 18.5536L45.2963 18.4975C45.2222 18.4975 45.1142 18.5255 44.9722 18.5816C44.8302 18.6376 44.6543 18.7279 44.4444 18.8525C44.2963 18.9023 44.0648 18.9553 43.75 19.0113C43.4352 19.0674 43.0185 19.1016 42.5 19.1141C42.2778 19.2262 42.0679 19.3258 41.8704 19.413C41.5864 19.4753 41.2284 19.5843 40.7963 19.74C40.3642 19.8957 39.8642 20.0857 39.2963 20.3099C38.963 20.4718 38.6574 20.5995 38.3796 20.6929C38.1019 20.7863 37.8704 20.833 37.6852 20.833C37.537 20.833 37.4136 20.8891 37.3148 21.0012C37.216 21.1133 37.1358 21.2752 37.0741 21.487C37.037 21.6863 36.9475 21.9603 36.8056 22.3091C36.6636 22.6579 36.4753 23.0938 36.2407 23.617C36.1914 23.754 36.1235 23.9658 36.037 24.2523C35.9506 24.5388 35.8519 24.8938 35.7407 25.3173C35.6667 25.4792 35.5802 25.6816 35.4815 25.9245C35.3827 26.1674 35.2716 26.4508 35.1481 26.7747C35.1481 26.9241 35.1327 27.1079 35.1019 27.3259C35.071 27.5438 35.0247 27.7961 34.963 28.0826C34.9012 28.257 34.8179 28.4781 34.713 28.7459C34.608 29.0137 34.4753 29.3095 34.3148 29.6334C34.216 29.8327 34.0741 29.979 33.8889 30.0725C33.7037 30.1659 33.463 30.2126 33.1667 30.2126C32.9568 30.2126 32.7932 30.141 32.6759 29.9977C32.5586 29.8545 32.5 29.6334 32.5 29.3344C32.5 29.0106 32.537 28.64 32.6111 28.2227C32.6852 27.8054 32.8025 27.3477 32.963 26.8494C33.1358 26.1892 33.2839 25.6536 33.4074 25.2426C33.5309 24.8315 33.5988 24.5263 33.6111 24.327C33.6481 24.2398 33.7037 24.0841 33.7778 23.8599C33.8519 23.6357 33.9383 23.3617 34.037 23.0378C34.1481 22.7264 34.2531 22.3714 34.3519 21.9728L34.2593 21.8233L33.6667 21.9167C33.5309 21.9043 33.4321 21.8482 33.3704 21.7486C33.3086 21.6489 33.2778 21.5181 33.2778 21.3562C33.2778 21.269 33.2901 21.1725 33.3148 21.0666C33.3395 20.9607 33.3765 20.833 33.4259 20.6836ZM40.1481 17.2457C40.4321 17.2457 40.8518 17.1771 41.4074 17.0401C41.963 16.9031 42.3827 16.8346 42.6667 16.8346C42.8395 16.872 43.0123 16.9031 43.1852 16.928C43.4938 16.8657 43.7963 16.7941 44.0926 16.7131C44.3889 16.6322 44.6914 16.5606 45 16.4983C45.1235 16.4734 45.216 16.4267 45.2778 16.3581C45.3395 16.2896 45.3704 16.1993 45.3704 16.0872C45.3457 15.7135 45.3333 15.4582 45.3333 15.3212C45.3333 15.0845 45.3488 14.8198 45.3796 14.5271C45.4105 14.2344 45.4568 13.9323 45.5185 13.6209L45.2963 12.7801L45.3704 12.014C45.321 11.74 45.2809 11.4815 45.25 11.2386C45.2191 10.9957 45.2161 10.7933 45.2407 10.6314C45.2161 10.5816 45.1728 10.5006 45.1111 10.3885C45.0494 10.2764 44.9815 10.1581 44.9074 10.0335C44.7839 9.82174 44.6574 9.61932 44.5278 9.42625C44.3981 9.23318 44.2716 9.037 44.1481 8.8377C43.9753 8.60103 43.7901 8.42664 43.5926 8.31453C43.3951 8.20243 43.1914 8.14637 42.9815 8.14637C42.7346 8.14637 42.4815 8.34567 42.2222 8.74427C41.963 9.14288 41.7222 9.747 41.5 10.5567C41.463 10.6563 41.3611 10.8618 41.1944 11.1732C41.0278 11.4846 40.7901 11.8895 40.4815 12.3877C40.4321 12.8611 40.2654 13.4496 39.9815 14.1534C39.6975 14.8572 39.3025 15.6824 38.7963 16.6291C38.7346 16.7163 38.7006 16.791 38.6944 16.8533C38.6883 16.9156 38.6852 16.9841 38.6852 17.0588C38.6852 17.146 38.7068 17.2114 38.75 17.255C38.7932 17.2986 38.858 17.3204 38.9444 17.3204C39.0679 17.3204 39.2685 17.3079 39.5463 17.283C39.8241 17.2581 40.0247 17.2457 40.1481 17.2457ZM68.7778 4.63372V5.2503C68.7778 5.47451 68.7593 5.68004 68.7222 5.86688C68.7099 5.96654 68.6698 6.06618 68.6019 6.16583C68.534 6.26548 68.4877 6.35268 68.463 6.42742C68.3889 6.63917 68.2901 6.79799 68.1667 6.90387C68.0432 7.00974 67.963 7.06268 67.9259 7.06268C67.8395 7.06268 67.7654 7.11562 67.7037 7.2215C67.642 7.32738 67.5741 7.38032 67.5 7.38032C67.4136 7.38032 67.3086 7.32115 67.1852 7.20282C67.0617 7.08448 66.9691 7.02531 66.9074 7.02531C66.6358 6.98795 66.4228 6.93812 66.2685 6.87584C66.1142 6.81356 65.9877 6.74505 65.8889 6.67031C65.7407 6.5582 65.5741 6.4461 65.3889 6.33399C65.2037 6.22189 64.858 6.10978 64.3519 5.99768C64.1914 5.97276 64.0247 5.94162 63.8519 5.90425C63.679 5.86688 63.5062 5.84197 63.3333 5.82952C63.2222 5.82952 63.0926 5.84509 62.9444 5.87623C62.7963 5.90737 62.6605 5.92294 62.537 5.92294C62.4259 5.92294 62.3117 5.8918 62.1944 5.82952C62.0772 5.76723 61.9568 5.73609 61.8333 5.73609C61.6111 5.73609 61.3796 5.74855 61.1389 5.77346C60.8981 5.79838 60.6481 5.81706 60.3889 5.82952C60.2778 5.82952 60.1605 5.83574 60.037 5.8482C59.9136 5.86066 59.7901 5.86688 59.6667 5.86688C59.6296 5.92917 59.5864 5.99145 59.537 6.05373C59.4877 6.11601 59.4444 6.17829 59.4074 6.24057C59.358 6.31531 59.287 6.39316 59.1944 6.47413C59.1018 6.55509 59.037 6.63294 59 6.70768C58.963 6.78242 58.9352 6.8665 58.9167 6.95992C58.8981 7.05334 58.8765 7.13742 58.8519 7.21216C58.7531 7.43637 58.6512 7.67304 58.5463 7.92216C58.4414 8.17129 58.3457 8.43287 58.2593 8.70691C58.1975 8.88129 58.1204 9.13353 58.0278 9.46362C57.9352 9.79371 57.8333 10.183 57.7222 10.6314C57.6111 11.1296 57.4784 11.7151 57.3241 12.3877C57.1698 13.0604 57.0185 13.7953 56.8704 14.5925C56.7839 15.0409 56.6914 15.5142 56.5926 16.0125C56.4938 16.5107 56.4012 17.0214 56.3148 17.5446C56.2407 17.9557 56.1636 18.3761 56.0833 18.8058C56.0031 19.2355 55.9259 19.6684 55.8519 20.1044C55.6914 21.0759 55.5278 22.0538 55.3611 23.0378C55.1944 24.0218 55.0494 24.981 54.9259 25.9152C54.8765 26.3885 54.8179 26.8587 54.75 27.3259C54.6821 27.793 54.6296 28.2445 54.5926 28.6805C54.5926 28.7926 54.6327 28.9203 54.713 29.0635C54.7932 29.2067 54.8272 29.3344 54.8148 29.4465C54.8148 29.5586 54.784 29.6583 54.7222 29.7455C54.6605 29.8327 54.6296 29.9323 54.6296 30.0444C54.6296 30.1192 54.5741 30.2282 54.463 30.3714C54.3519 30.5147 54.2593 30.605 54.1852 30.6423C54.1481 30.6548 54.0556 30.7171 53.9074 30.8292C53.7593 30.9413 53.6543 30.9973 53.5926 30.9973C53.5185 31.0098 53.4444 30.9786 53.3704 30.9039C53.2963 30.8292 53.2284 30.7918 53.1667 30.7918C53.1173 30.7918 53.0525 30.7482 52.9722 30.661C52.892 30.5738 52.8148 30.5178 52.7407 30.4929C52.6173 30.4555 52.4722 30.3621 52.3056 30.2126C52.1389 30.0631 52.037 29.9448 52 29.8576C51.9506 29.7579 51.9105 29.6365 51.8796 29.4932C51.8488 29.35 51.8333 29.1912 51.8333 29.0168C51.8333 28.8673 51.8364 28.7054 51.8426 28.531C51.8488 28.3566 51.8519 28.1947 51.8519 28.0452C51.8519 27.8085 51.9074 27.5656 52.0185 27.3165C52.1296 27.0674 52.1852 26.8245 52.1852 26.5878C52.1852 26.1269 52.2284 25.691 52.3148 25.2799C52.4012 24.8689 52.4568 24.4329 52.4815 23.972C52.4815 23.6606 52.5185 23.343 52.5926 23.0191C52.6667 22.6953 52.7161 22.3776 52.7407 22.0662C52.7778 21.5306 52.821 20.9856 52.8704 20.4313C52.9198 19.877 52.963 19.3258 53 18.7778C53.037 18.4788 53.0741 18.1674 53.1111 17.8436C53.1481 17.5197 53.1852 17.2021 53.2222 16.8906C53.2469 16.5792 53.2778 16.2523 53.3148 15.9097C53.3519 15.5672 53.4012 15.2277 53.463 14.8914C53.5 14.6672 53.5525 14.4461 53.6204 14.2281C53.6883 14.0101 53.7346 13.7953 53.7593 13.5835C53.7963 13.3967 53.8179 13.2005 53.8241 12.995C53.8302 12.7894 53.8519 12.5933 53.8889 12.4064C53.9259 12.1822 53.9383 11.9518 53.9259 11.7151C53.9136 11.4784 53.9259 11.2355 53.963 10.9864C54 10.8369 54.0679 10.675 54.1667 10.5006C54.2654 10.3262 54.3272 10.1581 54.3519 9.99613C54.3765 9.84665 54.4074 9.69095 54.4444 9.52902C54.4815 9.36708 54.5123 9.21138 54.537 9.06191C54.537 9.037 54.5679 8.98717 54.6296 8.91243C54.6914 8.8377 54.7654 8.73182 54.8519 8.5948C54.9136 8.48269 55.0185 8.34568 55.1667 8.18374C55.3148 8.02181 55.4444 7.87857 55.5556 7.754C55.7407 7.54225 55.8426 7.40523 55.8611 7.34295C55.8796 7.28067 55.9815 7.15611 56.1667 6.96926C56.2037 6.93189 56.2963 6.86961 56.4444 6.78242C56.5926 6.69522 56.6852 6.63294 56.7222 6.59557C56.7593 6.55821 56.7562 6.49904 56.713 6.41807C56.6698 6.33711 56.6605 6.28417 56.6852 6.25926C56.5617 6.25926 56.463 6.24991 56.3889 6.23123C56.3148 6.21254 56.2037 6.20943 56.0556 6.22189C55.8457 6.2468 55.679 6.2686 55.5556 6.28728C55.4321 6.30597 55.2654 6.32777 55.0556 6.35268C54.7963 6.39005 54.5432 6.42119 54.2963 6.4461C54.0494 6.47101 53.8148 6.50215 53.5926 6.53952C53.5432 6.53952 53.4877 6.51772 53.4259 6.47413C53.3642 6.43053 53.3086 6.41496 53.2593 6.42742C53.1852 6.43987 53.1142 6.4897 53.0463 6.57689C52.9784 6.66408 52.9198 6.70768 52.8704 6.70768C52.8333 6.72014 52.7932 6.7793 52.75 6.88518C52.7068 6.99106 52.6667 7.05023 52.6296 7.06268C52.5802 7.07514 52.5216 7.05023 52.4537 6.98795C52.3858 6.92566 52.3395 6.89452 52.3148 6.89452C52.2407 6.91944 52.2006 6.91321 52.1944 6.87584C52.1883 6.83847 52.1852 6.77619 52.1852 6.689C52.1852 6.6018 52.2099 6.50215 52.2593 6.39005C52.3086 6.27794 52.3765 6.13469 52.463 5.96031C52.5247 5.83574 52.5988 5.70807 52.6852 5.57728L52.9259 5.21293C53.0123 5.08837 53.1018 4.97938 53.1944 4.88596C53.287 4.79253 53.358 4.7396 53.4074 4.72714C53.4691 4.71468 53.5247 4.67109 53.5741 4.59635C53.6235 4.52161 53.679 4.47179 53.7407 4.44687C53.8025 4.43442 53.8704 4.44065 53.9444 4.46556C54.0185 4.49047 54.0802 4.4967 54.1296 4.48424C54.3765 4.40951 54.6204 4.32543 54.8611 4.232C55.1019 4.13858 55.3457 4.0545 55.5926 3.97977C55.8642 3.90503 56.1574 3.81784 56.4722 3.71818C56.787 3.61853 57.1235 3.52511 57.4815 3.43792C57.5926 3.41301 57.7068 3.35384 57.8241 3.26042C57.9414 3.167 58.0679 3.10783 58.2037 3.08292C58.2654 3.07046 58.3333 3.07669 58.4074 3.1016C58.4815 3.12651 58.5494 3.13897 58.6111 3.13897C59.3395 2.97704 60.1543 2.83068 61.0556 2.69989C61.9568 2.5691 62.9444 2.46011 64.0185 2.37291C64.2531 2.36046 64.5 2.31997 64.7593 2.25146C65.0185 2.18295 65.2778 2.1487 65.537 2.1487C65.6358 2.1487 65.7346 2.16427 65.8333 2.19541C65.9321 2.22655 66.0309 2.24212 66.1296 2.24212C66.2654 2.24212 66.4074 2.23901 66.5556 2.23278C66.7037 2.22655 66.8519 2.22344 67 2.22344C67.1481 2.22344 67.2901 2.23589 67.4259 2.26081C67.5617 2.28572 67.679 2.31686 67.7778 2.35423C67.8395 2.37914 67.8765 2.44765 67.8889 2.55976C67.9012 2.67186 67.9321 2.7466 67.9815 2.78397C68.0556 2.83379 68.1482 2.85871 68.2593 2.85871C68.3704 2.85871 68.4444 2.89607 68.4815 2.97081C68.6173 3.19502 68.7068 3.45972 68.75 3.7649C68.7932 4.07008 68.8025 4.35968 68.7778 4.63372ZM68.2407 19.1888C68.2407 18.9272 68.179 18.5162 68.0556 17.9557C67.9321 17.3951 67.8704 16.9716 67.8704 16.6851C67.8704 16.5232 67.8858 16.271 67.9167 15.9284C67.9475 15.5859 67.963 15.3336 67.963 15.1717C67.963 14.7108 67.9352 14.0164 67.8796 13.0884C67.8241 12.1604 67.7963 11.466 67.7963 11.0051C67.7963 10.2328 67.8395 9.2363 67.9259 8.01558C68.0123 6.79487 68.1358 5.36242 68.2963 3.71818C68.3704 3.12028 68.5031 2.66563 68.6944 2.35423C68.8858 2.04282 69.142 1.88712 69.463 1.88712C69.5741 1.88712 69.6821 1.96186 69.787 2.11133C69.892 2.26081 70.0062 2.48502 70.1296 2.78397C70.4136 3.05801 70.6975 3.30713 70.9815 3.53134C71.2037 3.73064 71.3704 3.97665 71.4815 4.26937C71.5926 4.5621 71.6481 4.90775 71.6481 5.30635C71.6481 5.66759 71.571 6.1814 71.4167 6.84781C71.2623 7.51422 71.1852 8.01558 71.1852 8.3519C71.1852 8.99963 71.1636 9.54458 71.1204 9.98678C71.0772 10.429 71.0123 10.7684 70.9259 11.0051L70.7222 11.603C70.7716 11.9767 70.821 12.3939 70.8704 12.8548C70.8333 13.5648 70.8086 14.306 70.7963 15.0783C70.7963 15.8381 70.858 16.6197 70.9815 17.4232C71.1049 18.2266 71.2716 19.0331 71.4815 19.8428C71.7778 20.9389 72.1389 21.7641 72.5648 22.3185C72.9907 22.8728 73.4691 23.1499 74 23.1499C74.2716 23.1499 74.5216 23.0845 74.75 22.9537C74.9784 22.8229 75.1975 22.6205 75.4074 22.3465C75.5679 22.1223 75.7222 21.8918 75.8704 21.6552C76.0185 21.4185 76.1667 21.188 76.3148 20.9638C76.4753 20.7645 76.6481 20.5123 76.8333 20.2071C77.0185 19.9019 77.2222 19.5376 77.4444 19.1141C77.6543 18.3667 77.8889 17.6131 78.1481 16.8533C78.4074 16.0934 78.6667 15.3274 78.9259 14.5551C78.9877 14.306 79.0679 13.9852 79.1667 13.5929C79.2654 13.2005 79.3642 12.749 79.463 12.2382C79.6975 11.6154 79.929 10.7497 80.1574 9.64112C80.3858 8.53251 80.642 7.18725 80.9259 5.6053C81.0247 5.35618 81.1451 5.03855 81.287 4.6524C81.429 4.26626 81.5926 3.81784 81.7778 3.30713C81.8272 3.12028 81.9198 2.82757 82.0556 2.42897C82.1914 2.03036 82.3827 1.52589 82.6296 0.915533C82.7284 0.616582 82.9074 0.389258 83.1667 0.233554C83.4259 0.0778507 83.7469 0 84.1296 0C84.3642 0 84.5339 0.152587 84.6389 0.457767C84.7438 0.762946 84.7963 1.22694 84.7963 1.84975C84.7963 3.0331 84.6512 4.48112 84.3611 6.19386C84.071 7.9066 83.6173 9.86532 83 12.0701C82.963 12.2694 82.9043 12.5216 82.8241 12.8268C82.7438 13.132 82.6482 13.4776 82.537 13.8638C82.5247 14.1005 82.4969 14.3714 82.4537 14.6766C82.4105 14.9817 82.3519 15.3336 82.2778 15.7322C82.0802 16.4298 81.9167 17.1771 81.787 17.9743C81.6574 18.7715 81.5556 19.5999 81.4815 20.4594C81.4815 20.5839 81.4599 20.7708 81.4167 21.0199C81.3735 21.269 81.3148 21.568 81.2407 21.9167C81.1667 22.2655 81.1173 22.5769 81.0926 22.851C81.0679 23.125 81.0556 23.3803 81.0556 23.617C81.0926 23.9533 81.1296 24.271 81.1667 24.5699C81.3272 24.7443 81.4475 24.8907 81.5278 25.009C81.608 25.1273 81.6481 25.2239 81.6481 25.2986C81.5741 25.5228 81.4475 25.7657 81.2685 26.0273C81.0895 26.2889 80.858 26.5691 80.5741 26.8681C80.2778 27.2044 79.9877 27.4598 79.7037 27.6341C79.4198 27.8085 79.1605 27.8957 78.9259 27.8957C78.7037 27.8957 78.4877 27.7556 78.2778 27.4753C78.0679 27.1951 77.963 26.9304 77.963 26.6812V26.5318C78.0123 26.4072 78.0556 26.264 78.0926 26.102C78.0926 26.0398 78.0772 25.9744 78.0463 25.9058C78.0154 25.8373 77.9877 25.747 77.963 25.6349L78.0741 25.3547C78.1235 25.2301 78.1728 25.0869 78.2222 24.9249C78.1975 24.8626 78.1697 24.7879 78.1389 24.7007C78.108 24.6135 78.0617 24.5076 78 24.3831C78.0247 24.3083 78.0494 24.218 78.0741 24.1121C78.0988 24.0063 78.1358 23.8724 78.1852 23.7104C78.1852 23.6108 78.1728 23.4862 78.1481 23.3367C78.1605 23.2496 78.179 23.1219 78.2037 22.9537C78.2284 22.7856 78.2593 22.5769 78.2963 22.3278C78.3457 22.116 78.3858 21.9385 78.4167 21.7953C78.4475 21.652 78.463 21.5431 78.463 21.4683C78.463 21.3811 78.4475 21.3002 78.4167 21.2254C78.3858 21.1507 78.3457 21.1009 78.2963 21.0759C78.2222 21.1009 78.1204 21.1943 77.9907 21.3562C77.8611 21.5181 77.7161 21.7424 77.5556 22.0288C77.358 22.3652 77.1883 22.6361 77.0463 22.8416C76.9043 23.0471 76.8086 23.1873 76.7593 23.262L76.6852 23.5236C76.3519 23.9845 76.0556 24.3675 75.7963 24.6727C75.537 24.9779 75.3395 25.1927 75.2037 25.3173C74.9691 25.529 74.6883 25.7221 74.3611 25.8965C74.034 26.0709 73.642 26.2204 73.1852 26.3449C72.9506 26.3948 72.7346 26.457 72.537 26.5318C72.0679 26.5318 71.6543 26.4695 71.2963 26.3449C70.9383 26.2204 70.6667 26.046 70.4815 25.8218C69.7284 24.9374 69.1667 23.9471 68.7963 22.851C68.4259 21.7548 68.2407 20.5341 68.2407 19.1888ZM88.7037 6.55821C88.6543 6.38382 88.5401 6.15027 88.3611 5.85754C88.1821 5.56482 87.9568 5.19425 87.6852 4.74582C87.4012 4.33477 87.1914 4.01402 87.0556 3.78358C86.9198 3.55314 86.8519 3.39432 86.8519 3.30713C86.8519 2.95835 87.25 2.38226 88.0463 1.57883C88.8426 0.775396 89.4259 0.373687 89.7963 0.373687C90.0679 0.485794 90.2654 0.597899 90.3889 0.710005H90.9444C91.2778 0.884393 91.6204 1.04632 91.9722 1.1958C92.3241 1.34527 92.6667 1.50098 93 1.66291C94 2.12379 94.6235 2.49436 94.8704 2.77463C95.1173 3.05489 95.5123 3.36941 96.0556 3.71818C96.1296 3.81784 96.2778 3.98288 96.5 4.21332C96.7222 4.44376 97.0247 4.73337 97.4074 5.08214C97.4568 5.11951 97.5185 5.18802 97.5926 5.28767C97.6667 5.38732 97.7469 5.4932 97.8333 5.6053C98.3642 6.24057 98.8117 6.82601 99.1759 7.36163C99.5401 7.89725 99.8148 8.3955 100 8.85638C100.235 9.41691 100.41 10.0148 100.528 10.6501C100.645 11.2853 100.704 11.9767 100.704 12.724C100.704 14.1067 100.519 15.2713 100.148 16.218C99.7778 17.1647 99.2037 17.8685 98.4259 18.3293C98.3519 18.3916 98.2469 18.4632 98.1111 18.5442C97.9753 18.6252 97.8395 18.7155 97.7037 18.8151L97.463 19.058C97.2531 19.2947 96.9043 19.5469 96.4167 19.8147C95.929 20.0826 95.2901 20.3722 94.5 20.6836C93.4506 21.0946 92.3457 21.543 91.1852 22.0288C90.8642 22.1908 90.5895 22.3216 90.3611 22.4212C90.1327 22.5209 89.9568 22.5707 89.8333 22.5707C89.4753 22.5707 89.2593 22.5956 89.1852 22.6454C89.1111 22.6953 89.0432 23.1935 88.9815 24.1402C88.9444 24.7505 88.9074 25.3484 88.8704 25.9339C88.8704 26.1456 88.9352 26.3916 89.0648 26.6719C89.1944 26.9522 89.3951 27.2542 89.6667 27.5781C89.5556 27.8272 89.429 28.0701 89.287 28.3068C89.1451 28.5435 88.9691 28.7988 88.7593 29.0728C88.537 29.4092 88.3086 29.6614 88.0741 29.8296C87.8395 29.9977 87.6173 30.0818 87.4074 30.0818C87 30.0818 86.7006 29.8638 86.5093 29.4278C86.3179 28.9919 86.2222 28.3379 86.2222 27.466C86.2222 27.192 86.2654 26.8463 86.3519 26.429C86.4383 26.0117 86.5679 25.4979 86.7407 24.8876L86.6481 23.8039C86.4877 23.7291 86.3302 23.6482 86.1759 23.561C86.0216 23.4738 85.8704 23.3803 85.7222 23.2807C85.5 23.181 85.3426 23.0689 85.25 22.9444C85.1574 22.8198 85.1111 22.6953 85.1111 22.5707C85.1111 22.4212 85.4105 22.2001 86.0093 21.9074C86.608 21.6147 86.9074 21.2254 86.9074 20.7396C86.9074 20.6026 86.8796 20.4033 86.8241 20.1417C86.7685 19.8801 86.7407 19.6871 86.7407 19.5625C86.8518 18.84 86.9753 18.1114 87.1111 17.3764C87.1358 17.3017 87.1667 17.0775 87.2037 16.7038C87.2407 16.3301 87.2901 15.7945 87.3519 15.097C87.3889 14.8852 87.4444 14.6174 87.5185 14.2935C87.5926 13.9697 87.6728 13.596 87.7593 13.1725L87.6296 12.4998L88.7037 6.55821ZM90.2222 4.33477C90.1481 4.33477 90.0957 4.35345 90.0648 4.39082C90.0339 4.42819 90.0185 4.48424 90.0185 4.55898C91.4753 6.0911 92.2037 7.22461 92.2037 7.95953C92.2037 8.18375 91.966 9.15221 91.4907 10.8649C91.0154 12.5777 90.6914 13.6147 90.5185 13.9759L90.6667 14.7606C90.3333 16.0187 90.0833 17.0993 89.9167 18.0024C89.75 18.9054 89.6667 19.6248 89.6667 20.1604C89.6667 20.2974 89.6944 20.3971 89.75 20.4594C89.8056 20.5216 89.8827 20.5528 89.9815 20.5528C90.1049 20.5528 90.3272 20.4967 90.6481 20.3846C90.9691 20.2725 91.3827 20.0794 91.8889 19.8054C92.2099 19.631 92.5309 19.4691 92.8519 19.3196C93.1728 19.1701 93.5 19.0144 93.8333 18.8525C93.9691 18.7778 94.1265 18.6812 94.3056 18.5629C94.4846 18.4446 94.679 18.3044 94.8889 18.1425C95.1852 17.9183 95.4197 17.7346 95.5926 17.5913C95.7654 17.4481 95.8765 17.3578 95.9259 17.3204C96.4568 16.9467 96.858 16.4796 97.1296 15.9191C97.4012 15.3585 97.537 14.6921 97.537 13.9198C97.537 13.459 97.4846 12.9919 97.3796 12.5185C97.2747 12.0452 97.1173 11.5594 96.9074 11.0611L96.8704 10.6127C96.8457 10.5504 96.8025 10.4788 96.7407 10.3978C96.679 10.3169 96.6111 10.2266 96.537 10.1269C96.463 10.0522 96.3827 9.95253 96.2963 9.82797C96.2099 9.7034 96.1296 9.54147 96.0556 9.34217C95.858 8.95603 95.5 8.47647 94.9815 7.90348C94.463 7.33049 93.7716 6.67032 92.9074 5.92294C92.8086 5.83574 92.6975 5.73298 92.5741 5.61465C92.4506 5.49631 92.3148 5.36864 92.1667 5.23162C91.9321 5.11951 91.6543 4.99184 91.3333 4.84859C91.0123 4.70534 90.642 4.53407 90.2222 4.33477ZM101.185 20.6836C101.148 20.5466 101.127 20.4344 101.12 20.3473C101.114 20.2601 101.111 20.1853 101.111 20.123C101.111 19.712 101.16 19.3601 101.259 19.0674C101.358 18.7747 101.506 18.5286 101.704 18.3293C101.753 18.2795 101.88 18.2048 102.083 18.1051C102.287 18.0055 102.556 17.8871 102.889 17.7501C103.123 17.638 103.312 17.5041 103.454 17.3484C103.596 17.1927 103.673 17.0028 103.685 16.7785C103.722 16.6042 103.796 16.4049 103.907 16.1806C104.019 15.9564 104.148 15.7135 104.296 15.452C104.346 15.3772 104.494 14.9475 104.741 14.1627C104.988 13.378 105.333 12.2258 105.778 10.7061C105.901 10.2452 106.025 9.84665 106.148 9.51033C106.272 9.17401 106.377 8.88752 106.463 8.65085C106.858 7.59207 107.182 6.89764 107.435 6.56755C107.688 6.23746 107.877 5.96654 108 5.75478V5.66136L107.426 4.74582L108.148 3.90503L109.074 3.71818C109.259 3.69327 109.429 3.51889 109.583 3.19502C109.738 2.87116 110.006 2.51616 110.389 2.13002C110.475 2.1051 110.614 2.02725 110.806 1.89646C110.997 1.76567 111.241 1.58194 111.537 1.34527C111.796 1.13352 112.019 0.977815 112.204 0.878164C112.389 0.778514 112.531 0.72869 112.63 0.72869C112.963 0.72869 113.204 0.797198 113.352 0.934217C113.5 1.07124 113.574 1.25185 113.574 1.47606C113.574 1.7501 113.432 2.1487 113.148 2.67186C112.864 3.19503 112.722 3.59362 112.722 3.86766C112.722 3.99222 112.75 4.09499 112.806 4.17595C112.861 4.25692 112.926 4.30986 113 4.33477L115.222 5.54925C115.346 5.59908 115.457 5.79526 115.556 6.13781C115.654 6.48036 115.735 6.95057 115.796 7.54848C115.87 8.04673 115.929 8.46089 115.972 8.79099C116.015 9.12108 116.037 9.38577 116.037 9.58507C115.951 10.1207 115.864 10.6625 115.778 11.2106C115.901 11.9082 116.037 12.6431 116.185 13.4154C116.111 14.1503 116.031 14.8976 115.944 15.6575C115.944 15.7322 115.96 15.7976 115.991 15.8537C116.022 15.9097 116.068 15.944 116.13 15.9564C116.34 15.9689 116.497 16.0249 116.602 16.1246C116.707 16.2242 116.759 16.3613 116.759 16.5356C116.759 16.7599 116.725 16.9374 116.657 17.0681C116.59 17.1989 116.494 17.3017 116.37 17.3764C116.21 17.4761 116.083 17.5633 115.991 17.638C115.898 17.7128 115.833 17.775 115.796 17.8249L116.037 18.9833L115.704 21.6365C115.704 21.8607 115.685 22.1472 115.648 22.496C115.611 22.8447 115.556 23.2496 115.481 23.7104C115.358 24.0468 115.265 24.327 115.204 24.5512C115.142 24.7754 115.111 24.9249 115.111 24.9997C115.173 25.2114 115.228 25.4356 115.278 25.6723C115.204 26.0086 115.127 26.3449 115.046 26.6812C114.966 27.0176 114.889 27.3477 114.815 27.6715C114.679 28.1075 114.5 28.4282 114.278 28.6338C114.056 28.8393 113.796 28.9421 113.5 28.9421C113.34 28.9421 113.219 28.8704 113.139 28.7272C113.059 28.5839 113.019 28.3691 113.019 28.0826C113.019 27.958 113.04 27.7774 113.083 27.5407C113.127 27.3041 113.148 27.1234 113.148 26.9989C113.148 26.9117 113.136 26.7934 113.111 26.6439C113.086 26.4944 113.074 26.3636 113.074 26.2515C113.074 25.9027 113.108 25.3453 113.176 24.5793C113.244 23.8132 113.278 23.2371 113.278 22.851C113.216 22.6392 113.154 22.4212 113.093 22.197C113.13 21.9603 113.154 21.7206 113.167 21.4777C113.179 21.2348 113.173 21.0074 113.148 20.7957L113.426 20.2912L113.185 18.5536L113.056 18.4975C112.981 18.4975 112.873 18.5255 112.731 18.5816C112.59 18.6376 112.414 18.7279 112.204 18.8525C112.056 18.9023 111.824 18.9553 111.509 19.0113C111.194 19.0674 110.778 19.1016 110.259 19.1141C110.037 19.2262 109.827 19.3258 109.63 19.413C109.346 19.4753 108.988 19.5843 108.556 19.74C108.123 19.8957 107.623 20.0857 107.056 20.3099C106.722 20.4718 106.417 20.5995 106.139 20.6929C105.861 20.7863 105.63 20.833 105.444 20.833C105.296 20.833 105.173 20.8891 105.074 21.0012C104.975 21.1133 104.895 21.2752 104.833 21.487C104.796 21.6863 104.707 21.9603 104.565 22.3091C104.423 22.6579 104.235 23.0938 104 23.617C103.951 23.754 103.883 23.9658 103.796 24.2523C103.71 24.5388 103.611 24.8938 103.5 25.3173C103.426 25.4792 103.34 25.6816 103.241 25.9245C103.142 26.1674 103.031 26.4508 102.907 26.7747C102.907 26.9241 102.892 27.1079 102.861 27.3259C102.83 27.5438 102.784 27.7961 102.722 28.0826C102.66 28.257 102.577 28.4781 102.472 28.7459C102.367 29.0137 102.235 29.3095 102.074 29.6334C101.975 29.8327 101.833 29.979 101.648 30.0725C101.463 30.1659 101.222 30.2126 100.926 30.2126C100.716 30.2126 100.552 30.141 100.435 29.9977C100.318 29.8545 100.259 29.6334 100.259 29.3344C100.259 29.0106 100.296 28.64 100.37 28.2227C100.444 27.8054 100.562 27.3477 100.722 26.8494C100.895 26.1892 101.043 25.6536 101.167 25.2426C101.29 24.8315 101.358 24.5263 101.37 24.327C101.407 24.2398 101.463 24.0841 101.537 23.8599C101.611 23.6357 101.698 23.3617 101.796 23.0378C101.907 22.7264 102.012 22.3714 102.111 21.9728L102.019 21.8233L101.426 21.9167C101.29 21.9043 101.191 21.8482 101.13 21.7486C101.068 21.6489 101.037 21.5181 101.037 21.3562C101.037 21.269 101.049 21.1725 101.074 21.0666C101.099 20.9607 101.136 20.833 101.185 20.6836ZM107.907 17.2457C108.191 17.2457 108.611 17.1771 109.167 17.0401C109.722 16.9031 110.142 16.8346 110.426 16.8346C110.599 16.872 110.772 16.9031 110.944 16.928C111.253 16.8657 111.556 16.7941 111.852 16.7131C112.148 16.6322 112.451 16.5606 112.759 16.4983C112.883 16.4734 112.975 16.4267 113.037 16.3581C113.099 16.2896 113.13 16.1993 113.13 16.0872C113.105 15.7135 113.093 15.4582 113.093 15.3212C113.093 15.0845 113.108 14.8198 113.139 14.5271C113.17 14.2344 113.216 13.9323 113.278 13.6209L113.056 12.7801L113.13 12.014C113.08 11.74 113.04 11.4815 113.009 11.2386C112.978 10.9957 112.975 10.7933 113 10.6314C112.975 10.5816 112.932 10.5006 112.87 10.3885C112.809 10.2764 112.741 10.1581 112.667 10.0335C112.543 9.82174 112.417 9.61932 112.287 9.42625C112.157 9.23318 112.031 9.037 111.907 8.8377C111.735 8.60103 111.549 8.42664 111.352 8.31453C111.154 8.20243 110.951 8.14637 110.741 8.14637C110.494 8.14637 110.241 8.34567 109.981 8.74427C109.722 9.14288 109.481 9.747 109.259 10.5567C109.222 10.6563 109.12 10.8618 108.954 11.1732C108.787 11.4846 108.549 11.8895 108.241 12.3877C108.191 12.8611 108.025 13.4496 107.741 14.1534C107.457 14.8572 107.062 15.6824 106.556 16.6291C106.494 16.7163 106.46 16.791 106.454 16.8533C106.448 16.9156 106.444 16.9841 106.444 17.0588C106.444 17.146 106.466 17.2114 106.509 17.255C106.552 17.2986 106.617 17.3204 106.704 17.3204C106.827 17.3204 107.028 17.3079 107.306 17.283C107.583 17.2581 107.784 17.2457 107.907 17.2457ZM131.148 22.851C130.741 23.2496 130.34 23.6419 129.944 24.0281C129.549 24.4142 129.136 24.7941 128.704 25.1678C128.235 25.5789 127.769 25.9308 127.306 26.2235C126.843 26.5162 126.383 26.7435 125.926 26.9055C125.519 26.9055 125.21 26.8525 125 26.7466C124.79 26.6408 124.685 26.4695 124.685 26.2328C125.142 25.7346 125.605 25.2986 126.074 24.9249C126.593 24.5139 127.123 24.0779 127.667 23.617C127.852 23.3928 128.13 23.0627 128.5 22.6267C128.87 22.1908 129.241 21.761 129.611 21.3375C129.772 21.1258 129.892 20.8953 129.972 20.6462C130.052 20.3971 130.093 20.1168 130.093 19.8054C130.093 19.6061 130.077 19.4317 130.046 19.2822C130.015 19.1328 129.969 18.9958 129.907 18.8712C129.833 18.7342 129.756 18.594 129.676 18.4508C129.596 18.3075 129.512 18.1612 129.426 18.0117C129.315 17.7626 129.154 17.4481 128.944 17.0681C128.735 16.6882 128.469 16.2367 128.148 15.7135L128.046 15.508C128.015 15.4457 128 15.3834 128 15.3212C128 15.0471 128.164 14.8478 128.491 14.7233C128.818 14.5987 129.309 14.5364 129.963 14.5364C130.185 14.5364 130.46 14.7139 130.787 15.0689C131.114 15.4239 131.475 15.9627 131.87 16.6851C132.253 17.3702 132.537 17.9588 132.722 18.4508C132.907 18.9428 133 19.3321 133 19.6186C133 19.9923 132.907 20.3815 132.722 20.7863C132.537 21.1912 132.259 21.6053 131.889 22.0288C131.802 22.1036 131.698 22.2126 131.574 22.3558C131.451 22.4991 131.309 22.6641 131.148 22.851ZM121.648 25.5976L121.574 25.747C121.34 25.9588 121.086 26.1145 120.815 26.2141C120.543 26.3138 120.259 26.3636 119.963 26.3636C119.556 26.3636 119.244 26.3044 119.028 26.1861C118.812 26.0678 118.704 25.884 118.704 25.6349C118.827 25.4232 118.963 25.2799 119.111 25.2052C119.321 25.118 119.543 25.0121 119.778 24.8876L121.315 23.6918C121.364 23.6419 121.441 23.5703 121.546 23.4769C121.651 23.3835 121.778 23.2745 121.926 23.1499C121.988 23.1125 122.059 23.0689 122.139 23.0191C122.219 22.9693 122.302 22.9008 122.389 22.8136L122.907 21.9541C123.315 21.543 123.691 21.1569 124.037 20.7957C124.309 20.5466 124.509 20.2881 124.639 20.0203C124.769 19.7525 124.833 19.4753 124.833 19.1888C124.833 18.9646 124.747 18.6968 124.574 18.3854C124.401 18.074 124.296 17.8249 124.259 17.638C124.025 17.4138 123.725 17.0246 123.361 16.4703C122.997 15.9159 122.815 15.5578 122.815 15.3959C122.815 15.2464 122.963 15.0845 123.259 14.9101C123.556 14.7357 123.981 14.5427 124.537 14.3309L124.722 14.3496C124.759 14.3994 124.815 14.4617 124.889 14.5364L125.148 14.798C125.309 14.9226 125.5 15.0969 125.722 15.3212C125.944 15.5454 126.198 15.8132 126.481 16.1246C126.556 16.2741 126.654 16.4422 126.778 16.6291L127.056 16.8346C127.117 16.872 127.25 17.2425 127.454 17.9463C127.657 18.6501 127.759 19.0643 127.759 19.1888C127.759 19.3383 127.688 19.5625 127.546 19.8615C127.404 20.1604 127.191 20.5466 126.907 21.0199C126.735 21.1445 126.599 21.2503 126.5 21.3375C126.29 21.6738 125.978 22.0413 125.565 22.4399C125.151 22.8385 124.642 23.262 124.037 23.7104C123.864 23.8724 123.633 24.0748 123.343 24.3177C123.052 24.5606 122.71 24.844 122.315 25.1678C122.241 25.1927 122.148 25.2426 122.037 25.3173C121.926 25.392 121.796 25.4854 121.648 25.5976Z" fill="#638C47"/>
</svg>
